<?xml version="1.0" encoding="UTF-8" standalone="no"?>
<svg
   width="7785px"
   height="5447px"
   viewBox="0 0 7785 5447"
   version="1.1"
   id="svg57"
   sodipodi:docname="ticketmaster_svg_FINISH.svg"
   inkscape:version="1.3.1 (9b9bdc1480, 2023-11-25, custom)"
   xmlns:inkscape="http://www.inkscape.org/namespaces/inkscape"
   xmlns:sodipodi="http://sodipodi.sourceforge.net/DTD/sodipodi-0.dtd"
   xmlns="http://www.w3.org/2000/svg"
   xmlns:svg="http://www.w3.org/2000/svg">
  <sodipodi:namedview
     id="namedview57"
     pagecolor="#ffffff"
     bordercolor="#000000"
     borderopacity="0.25"
     inkscape:showpageshadow="2"
     inkscape:pageopacity="0.0"
     inkscape:pagecheckerboard="0"
     inkscape:deskcolor="#d1d1d1"
     showgrid="false"
     inkscape:zoom="0.26666667"
     inkscape:cx="3896.25"
     inkscape:cy="3421.875"
     inkscape:window-width="1850"
     inkscape:window-height="1009"
     inkscape:window-x="70"
     inkscape:window-y="34"
     inkscape:window-maximized="1"
     inkscape:current-layer="svg57" />
  <defs
     id="defs1" />
  <path
     d="M 4353.18345703125,2832.262688802083 C 4089.3753515625,2832.262688802083 3716.1439013671875,2832.262688802083 3448.945063476562,2832.262688802083 C 3389.1662988281246,2832.262688802083 3285.003911132813,2897.5912265624997 3285.003911132813,2977.069197916667 C 3285.003911132813,3620.9074348958334 3285.003911132813,4508.484736979166 3285.003911132813,5159.3161276041665 C 3511.5823828125,5159.3161276041665 4284.676977539063,5159.3161276041665 4511.25544921875,5159.3161276041665 C 4511.25544921875,4508.484736979166 4511.25544921875,3620.9074348958334 4511.25544921875,2977.069197916667 L 4511.25544921875,2977.069197916667 C 4511.25544921875,2897.5061171875 4409.723540039063,2832.262688802083 4353.18345703125,2832.262688802083"
     id="ICE FLOOR"
     fill="#dfeced"
     fill-opacity="1.0"
     style="fill:#5e83ef;fill-opacity:0.90031892;opacity:0.19219157;paint-order:markers stroke fill" />
  <path
     d="M 3018.284033203125,3535.436345052083 L 3018.284033203125,4164.84854296875 L 3228.0304833984374,4164.84854296875 L 3228.0304833984374,4035.95039453125 L 3270.6047021484374,4035.9149322916664 L 3270.6047021484374,3664.1571822916662 L 3228.0228808593747,3664.1429973958334 L 3227.962060546875,3535.436345052083 L 3018.284033203125,3535.436345052083"
     id="FLOOR 5"
     fill="#ffffff"
     fill-opacity="1.0"
     stroke="#dddddd"
     stroke-opacity="1.0"
     stroke-width="7.0" />
  <path
     d="M 4565.4159375,2953.344959635416 L 4522.758090820313,2953.415884114583 L 4522.758090820313,3488.6758359375 L 4565.347514648437,3488.7254830729166 L 4565.4159375,3535.450529947917 L 4817.60736328125,3535.450529947917 L 4817.60736328125,2906.5064335937495 L 4565.461552734375,2906.5135260416664 L 4565.4159375,2953.344959635416"
     id="FLOOR 2"
     fill="#ffffff"
     fill-opacity="1.0"
     stroke="#dddddd"
     stroke-opacity="1.0"
     stroke-width="7.0" />
  <path
     d="M 4775.025541992188,3535.436345052083 L 4775.025541992188,4164.84854296875 L 4565.279091796875,4164.84854296875 L 4565.279091796875,4035.95039453125 L 4522.704873046875,4035.9149322916664 L 4522.704873046875,3664.1571822916662 L 4565.286694335938,3664.1429973958334 L 4565.347514648437,3535.436345052083 L 4775.025541992188,3535.436345052083"
     id="FLOOR 1"
     fill="#ffffff"
     fill-opacity="1.0"
     stroke="#dddddd"
     stroke-opacity="1.0"
     stroke-width="7.0" />
  <path
     d="M 4437.738896484375,2504.0596614583333 L 3311.69642578125,2504.0596614583333 L 3311.69642578125,2779.0622369791668 L 3537.5070410156254,2779.0622369791668 L 3537.537451171875,2818.7799453125 L 4211.8674609375,2818.7799453125 L 4211.913076171875,2779.1047916666666 L 4437.738896484375,2779.0622369791668 L 4437.738896484375,2504.0596614583333"
     id="FLOOR 3"
     fill="#ffffff"
     fill-opacity="1.0"
     stroke="#dddddd"
     stroke-opacity="1.0"
     stroke-width="7.0" />
  <path
     d="M 3227.8860351562503,2953.224388020833 L 3270.5438818359376,2953.2953125 L 3270.5438818359376,3488.555264322916 L 3227.9544580078127,3488.5978190104165 L 3227.893637695313,3535.3299583333337 L 2975.694609375,3535.3299583333337 L 2975.694609375,2906.3858619791663 L 3227.840419921875,2906.3858619791663 L 3227.8860351562503,2953.224388020833"
     id="FLOOR 4"
     fill="#ffffff"
     fill-opacity="1.0"
     stroke="#dddddd"
     stroke-opacity="1.0"
     stroke-width="7.0" />
  <path
     d="M 2892.6520751953126,1301.5351171875 L 2892.6520751953126,1301.9606640625 L 2911.301103515625,1381.6797786458333 L 3467.2899902343747,1381.6797786458333 L 3467.2899902343747,1522.50033203125 L 4319.534619140625,1522.50033203125 L 4319.534619140625,1381.6797786458333 L 4873.645678710937,1381.6797786458333 L 4892.340322265625,1301.747890625 L 4892.347924804687,1301.5351171875 L 2892.6520751953126,1301.5351171875"
     id="INACTIVE"
     fill="#cacaca"
     fill-opacity="1.0"
     stroke="#cacaca"
     stroke-opacity="1.0"
     stroke-width="7.0" />
  <path
     d="M 2530.70279296875,1450.1644557291668 L 2602.9953369140626,1593.7723411458333 L 2492.188330078125,1637.5682070312498 C 2366.4423339843747,1754.607782552083 2240.6887353515626,1871.6473580729164 2240.6887353515626,1871.6473580729164 C 2240.6887353515626,1871.6473580729164 2176.8426123046875,1814.5673372395831 2112.9964892578123,1757.4944088541667 L 2112.9964892578123,1757.4944088541667 L 2364.4960839843748,1523.4081653645833 L 2530.70279296875,1450.1644557291668"
     id="path1"
     fill="#cacaca"
     fill-opacity="1.0"
     stroke="#cacaca"
     stroke-opacity="1.0"
     stroke-width="7.0" />
  <path
     d="M 2112.9964892578123,1757.61498046875 L 1901.1973535156249,1957.8915247395835 L 1763.560986328125,2230.7947356770833 L 1923.062255859375,2290.3003736979167 L 2043.7677685546876,2051.2565091145834 L 2240.5670947265626,1871.6757278645832 L 2112.9964892578123,1757.61498046875"
     id="path2"
     fill="#cacaca"
     fill-opacity="1.0"
     stroke="#cacaca"
     stroke-opacity="1.0"
     stroke-width="7.0" />
  <path
     d="M 5670.680668945312,1759.8136393229167 L 5549.055249023438,1872.5835611979167 L 5741.34626953125,2051.277786458333 L 5861.914936523438,2290.0521380208334 L 6021.3553857421875,2230.6316093749997 L 5883.620185546875,1957.7000286458335 L 5670.680668945312,1759.8136393229167"
     id="path3"
     fill="#cacaca"
     fill-opacity="1.0"
     stroke="#cacaca"
     stroke-opacity="1.0"
     stroke-width="7.0" />
  <path
     d="M 4904.352333984375,4471.611100260417 L 4904.3675390625,4797.218291666667 L 5997.141298828125,4797.218291666667 L 5997.141298828125,4471.611100260417 L 4904.352333984375,4471.611100260417"
     id="101Gold"
     fill="#ffffff"
     fill-opacity="1.0"
     stroke="#dddddd"
     stroke-opacity="1.0"
     stroke-width="7.0" />
  <path
     d="M 4904.413154296875,3747.0111588541668 L 4904.420756835937,4471.6465625 L 6371.649975585938,4471.6465625 L 6371.642373046875,3747.0111588541668 L 4904.413154296875,3747.0111588541668"
     id="102Gold"
     fill="#ffffff"
     fill-opacity="1.0"
     stroke="#dddddd"
     stroke-opacity="1.0"
     stroke-width="7.0" />
  <path
     d="M 4904.473974609376,3017.198268229167 L 4904.481577148437,3746.2948216145833 L 6371.642373046875,3746.2948216145833 L 6371.634770507812,3017.198268229167 L 4904.473974609376,3017.198268229167"
     id="103Gold"
     fill="#ffffff"
     fill-opacity="1.0"
     stroke="#dddddd"
     stroke-opacity="1.0"
     stroke-width="7.0" />
  <path
     d="M 6221.560649414062,2156.8843359375 L 5243.585229492187,2521.72694921875 L 5320.4468994140625,2674.1011002604164 L 5073.683686523437,2674.1011002604164 L 4904.88451171875,2715.6131979166666 L 4904.534794921875,3016.4535611979168 L 6371.62716796875,3016.42519140625 L 6371.62716796875,2454.2139375 L 6221.560649414062,2156.8843359375"
     id="104Gold"
     fill="#ffffff"
     fill-opacity="1.0"
     stroke="#dddddd"
     stroke-opacity="1.0"
     stroke-width="7.0" />
  <path
     d="M 5548.865185546875,1872.3353255208333 L 5077.051611328126,2309.754958333333 L 5189.196665039062,2413.9855729166666 L 5243.1975,2521.0177044270836 L 5862.006166992188,2290.18689453125 L 5741.323461914063,2051.1784921875 L 5548.865185546875,1872.3353255208333"
     id="105"
     fill="#ffffff"
     fill-opacity="1.0"
     stroke="#dddddd"
     stroke-opacity="1.0"
     stroke-width="7.0" />
  <path
     d="M 4892.522783203125,1301.64150390625 L 4581.160795898438,2493.4209895833333 L 4613.3651513671875,2493.4209895833333 L 4680.928916015625,2522.3368997395833 L 4794.229555664063,2627.638473958333 L 5165.035795898438,2391.608899739583 L 5077.196059570312,2309.754958333333 L 5670.1180810546875,1759.2887981770834 L 5420.830825195312,1527.6423567708334 L 4892.522783203125,1301.64150390625"
     id="1-106"
     fill="#ffffff"
     fill-opacity="1.0"
     stroke="#dddddd"
     stroke-opacity="1.0"
     stroke-width="7.0" />
  <path
     d="M 4319.534619140625,1381.64431640625 L 4319.230517578125,2493.42808203125 L 4581.084770507812,2493.4209895833333 L 4871.5625830078125,1381.64431640625 L 4319.534619140625,1381.64431640625"
     id="107"
     fill="#ffffff"
     fill-opacity="1.0"
     stroke="#dddddd"
     stroke-opacity="1.0"
     stroke-width="7.0" />
  <path
     d="M 2913.29296875,1381.64431640625 L 3194.845400390625,2493.4209895833333 L 3466.8262353515624,2493.42808203125 L 3466.8262353515624,1381.64431640625 L 2913.29296875,1381.64431640625"
     id="109"
     fill="#ffffff"
     fill-opacity="1.0"
     stroke="#dddddd"
     stroke-opacity="1.0"
     stroke-width="7.0" />
  <path
     d="M 2892.2111279296873,1301.7833528645833 L 2529.4635791015626,1453.384427083333 L 2599.4677587890624,1592.4886080729166 L 2490.7058349609374,1635.4830273437499 L 2236.8950683593753,1871.7182825520833 L 2708.84548828125,2308.9818815104168 L 2619.9794091796875,2391.601807291667 L 2990.8160595703125,2627.638473958333 L 3104.078686523437,2522.3368997395833 L 3171.6196435546876,2493.413897135417 L 3194.769375,2493.47063671875 L 2913.2093408203123,1381.5733919270833 L 2892.2111279296873,1301.7833528645833"
     id="110"
     fill="#ffffff"
     fill-opacity="1.0"
     stroke="#dddddd"
     stroke-opacity="1.0"
     stroke-width="7.0" />
  <path
     d="M 2236.4389160156247,1872.2289388020833 L 2043.7753710937502,2051.2636015625 L 1923.062255859375,2290.3216510416664 L 2541.83291015625,2521.1524609374997 L 2595.8185400390626,2414.1345143229164 L 2708.374130859375,2309.4783528645835 L 2236.4389160156247,1872.2289388020833"
     id="111"
     fill="#ffffff"
     fill-opacity="1.0"
     stroke="#dddddd"
     stroke-opacity="1.0"
     stroke-width="7.0" />
  <path
     d="M 1563.3937353515623,2156.9197981770835 L 1413.4640625,2454.249399739583 L 1413.4260498046876,3016.375544270833 L 2891.8233984375,3016.38263671875 L 2891.4052587890624,2922.053079427083 L 2891.4052587890624,2715.5919205729165 L 2711.415146484375,2674.1011002604164 L 2464.68234375,2674.1011002604164 L 2541.5060009765625,2521.79078125 L 1563.3937353515623,2156.9197981770835"
     id="1-112"
     fill="#ffffff"
     fill-opacity="1.0"
     stroke="#dddddd"
     stroke-opacity="1.0"
     stroke-width="7.0" />
  <path
     d="M 1415.060595703125,3017.056419270833 L 1415.0073779296874,3746.230989583333 L 2891.869013671875,3746.230989583333 L 2891.88421875,3017.056419270833 L 1415.060595703125,3017.056419270833"
     id="1-113"
     fill="#ffffff"
     fill-opacity="1.0"
     stroke="#dddddd"
     stroke-opacity="1.0"
     stroke-width="7.0" />
  <path
     d="M 1413.4032421875,3747.0111588541668 L 1413.3500244140625,4471.717486979166 L 2891.929833984375,4471.717486979166 L 2891.9374365234376,3747.0111588541668 L 1413.4032421875,3747.0111588541668"
     id="1-114"
     fill="#ffffff"
     fill-opacity="1.0"
     stroke="#dddddd"
     stroke-opacity="1.0"
     stroke-width="7.0" />
  <path
     d="M 1790.8160888671875,4472.426731770833 L 1790.8160888671875,4797.2537539062505 L 2891.990654296875,4797.2537539062505 L 2891.9982568359374,4472.426731770833 L 1790.8160888671875,4472.426731770833"
     id="115Platinu"
     fill="#ffffff"
     fill-opacity="1.0"
     stroke="#dddddd"
     stroke-opacity="1.0"
     stroke-width="7.0" />
  <path
     d="M 3467.594091796875,1522.4648697916666 L 3467.594091796875,2493.42808203125 L 4318.470263671875,2493.42808203125 L 4318.470263671875,1522.4648697916666 L 3467.594091796875,1522.4648697916666"
     id="108"
     fill="#ffffff"
     fill-opacity="1.0"
     stroke="#dddddd"
     stroke-opacity="1.0"
     stroke-width="7.0" />
  <path
     d="M 6027.368994140626,2940.6352929687496 L 6301.288476562499,2940.6352929687496 L 6301.288476562499,3085.6049283854168 L 6027.368994140626,3085.6049283854168 L 6027.368994140626,2940.6352929687496"
     id="VOM"
     fill="#cacaca"
     fill-opacity="1.0"
     stroke="#cacaca"
     stroke-opacity="1.0"
     stroke-width="2.0" />
  <path
     d="M 1501.6915283203125,3674.526341145833 L 1775.6110107421875,3674.526341145833 L 1775.6110107421875,3819.4959765625 L 1501.6915283203125,3819.4959765625 L 1501.6915283203125,3674.526341145833"
     id="path4"
     fill="#cacaca"
     fill-opacity="1.0"
     stroke="#cacaca"
     stroke-opacity="1.0"
     stroke-width="2.0" />
  <path
     d="M 1500.9312744140625,2940.6352929687496 L 1774.8507568359375,2940.6352929687496 L 1774.8507568359375,3085.6049283854168 L 1500.9312744140625,3085.6049283854168 L 1500.9312744140625,2940.6352929687496"
     id="path5"
     fill="#cacaca"
     fill-opacity="1.0"
     stroke="#cacaca"
     stroke-opacity="1.0"
     stroke-width="2.0" />
  <path
     d="M 6027.368994140626,3674.526341145833 L 6301.288476562499,3674.526341145833 L 6301.288476562499,3819.4959765625 L 6027.368994140626,3819.4959765625 L 6027.368994140626,3674.526341145833"
     id="path6"
     fill="#cacaca"
     fill-opacity="1.0"
     stroke="#cacaca"
     stroke-opacity="1.0"
     stroke-width="2.0" />
  <path
     d="M 2720.735859375,1133.7845390625 L 1991.1429931640625,1406.7161197916666 L 1865.5490478515624,1521.1882291666668 L 1970.82140625,1620.6456263020834 L 2071.9427783203123,1528.479265625 L 2747.876923828125,1275.6264049479166 L 5012.711323242188,1275.6264049479166 L 5688.64546875,1528.479265625 L 5789.9264941406245,1620.80166015625 L 5895.335698242187,1519.0250325520833 L 5772.128950195312,1406.7161197916666 L 5042.536083984375,1133.7845390625 L 2720.735859375,1133.7845390625"
     id="SUITS"
     fill="#cacaca"
     fill-opacity="1.0" />
  <path
     d="M 2555.9508251953125,249.38465364583334 L 1495.4878564453124,646.1319346354167 L 648.6478725585937,1418.02857421875 L 194.5109619140625,2396.2828229166666 L 194.518564453125,2603.7652942708332 L 363.27440478515626,2901.5913671875 L 457.13307128906246,2901.5913671875 L 457.13307128906246,3447.4758059895835 L 580.07373046875,3447.4758059895835 L 580.07373046875,3571.480165364583 L 723.71914453125,3835.375967447916 L 1201.854990234375,3835.375967447916 L 1201.8473876953124,2632.0854388020834 L 1413.5476904296875,2175.9204661458334 L 1310.784169921875,2138.7560390625 L 1401.6649218750001,1942.9973841145834 L 1499.31193359375,1853.9517005208334 L 1573.436689453125,1932.32325 L 1744.0148583984374,1776.84969921875 L 1664.9180419921875,1703.0669635416664 L 1865.009267578125,1520.6988502604167 L 1991.2874414062499,1406.7444895833332 L 2720.903115234375,1133.8270937500001 L 5042.9086083984375,1134.0044049479168 L 5772.600307617187,1406.8863385416666 L 5895.966708984375,1518.4576367187499 L 6361.7438671875,1943.0612161458332 L 6669.912788085938,2606.6873828125 L 6559.052563476563,2606.6873828125 L 6559.052563476563,3802.190403645833 L 7079.385541992188,3802.190403645833 L 7202.265380859375,3576.409416666667 L 7202.265380859375,3442.504 L 7327.973364257813,3442.504 L 7327.410776367188,2901.6197369791666 L 7590.496640625,2599.233220052083 L 7590.496640625,2396.2686380208334 L 7136.305751953125,1418.0356666666667 L 6289.466528320313,646.1177497395834 L 5228.965546875,249.38465364583334 L 2555.9508251953125,249.38465364583334"
     id="DROP SHADOW"
     fill="#cacaca"
     fill-opacity="1.0"
     stroke="#cacaca"
     stroke-opacity="1.0"
     stroke-width="7.0" />
  <path
     d="M 3369.369287109375,249.38465364583334 L 3369.369287109375,1132.7419492187498 L 4392.1388671875,1132.7419492187498 L 4392.1388671875,249.37756119791666 L 3369.369287109375,249.38465364583334"
     id="308"
     fill="#ffffff"
     fill-opacity="1.0"
     stroke="#dddddd"
     stroke-opacity="1.0"
     stroke-width="7.0" />
  <path
     d="M 3368.5862255859374,249.37046875000001 L 2555.958427734375,249.38465364583334 L 2270.6123291015624,356.1401796875 L 2478.30609375,882.1161171875 L 2383.350380859375,915.94709375 L 2501.3493896484374,1214.8370338541665 L 2720.8042822265625,1132.7419492187498 L 3368.5862255859374,1132.7277643229165 L 3368.5862255859374,249.37046875000001"
     id="309"
     fill="#ffffff"
     fill-opacity="1.0"
     stroke="#dddddd"
     stroke-opacity="1.0"
     stroke-width="7.0" />
  <path
     d="M 2269.9128955078127,356.3955078125 L 1698.1411376953126,570.3037369791666 L 1900.0949853515624,1095.1094205729166 L 2037.7389550781252,1046.9800690104166 L 2157.1216259765624,1343.6075182291668 L 2500.6499560546877,1215.0923619791668 L 2383.9205712890625,916.2307916666666 L 2478.9142968749998,882.3643528645832 L 2269.9128955078127,356.3955078125"
     id="310"
     fill="#ffffff"
     fill-opacity="1.0"
     stroke="#dddddd"
     stroke-opacity="1.0"
     stroke-width="7.0" />
  <path
     d="M 1697.4341015624998,570.5874348958333 L 1495.4878564453124,646.1361901041666 L 1008.6668701171875,1089.8681015625 L 1665.4578222656248,1702.59176953125 L 1991.2190185546876,1405.6806223958333 L 2156.422192382812,1343.8770312499998 L 2037.7389550781252,1046.9800690104166 L 1899.6236279296875,1096.0030690104165 L 1697.4341015624998,570.5874348958333"
     id="311"
     fill="#ffffff"
     fill-opacity="1.0"
     stroke="#dddddd"
     stroke-opacity="1.0"
     stroke-width="7.0" />
  <path
     d="M 1008.142294921875,1090.3574804687498 L 648.6486328125001,1418.02857421875 L 495.60952148437497,1747.6855533854166 L 1049.7205810546875,1947.3734244791665 L 1014.6728759765625,2030.9295533854167 L 1311.088271484375,2138.1177187499998 L 1401.6649218750001,1943.0044765625 L 1499.3195361328126,1853.9587929687498 L 1573.4442919921876,1932.32325 L 1744.0148583984374,1776.8567916666668 L 1008.142294921875,1090.3574804687498"
     id="312"
     fill="#ffffff"
     fill-opacity="1.0"
     stroke="#dddddd"
     stroke-opacity="1.0"
     stroke-width="7.0" />
  <path
     d="M 495.2826123046875,1748.3238736979167 L 261.03317871093753,2252.9231731770833 L 809.79205078125,2452.0791106770835 L 847.9948095703126,2357.820477864583 L 1261.1015771484374,2504.3717291666667 L 1413.5476904296875,2175.9204661458334 L 1013.66173828125,2031.305453125 L 1048.709443359375,1947.7635091145833 L 495.2826123046875,1748.3238736979167"
     id="313"
     fill="#ffffff"
     fill-opacity="1.0"
     stroke="#dddddd"
     stroke-opacity="1.0"
     stroke-width="7.0" />
  <path
     d="M 260.751884765625,2253.58986328125 L 194.5109619140625,2396.2828229166666 L 194.518564453125,2603.77238671875 L 363.2797265625,2901.5913671875 L 457.140673828125,2901.5913671875 L 457.140673828125,3447.4828984375 L 739.1188476562501,3447.4828984375 L 739.1188476562501,3349.6071171874996 L 1201.854990234375,3349.6071171874996 L 1201.8473876953124,2632.09253125 L 1260.820283203125,2505.0384192708334 L 848.0404248046875,2357.8275703125 L 810.3242285156249,2449.59675390625 L 260.751884765625,2253.58986328125"
     id="314"
     fill="#ffffff"
     fill-opacity="1.0"
     stroke="#dddddd"
     stroke-opacity="1.0"
     stroke-width="7.0" />
  <path
     d="M 739.8791015625001,3350.330546875 L 739.8791015625001,3448.2063281250003 L 580.07373046875,3448.2063281250003 L 580.07373046875,3571.4872578125 L 723.7237060546876,3835.383059895833 L 1201.854990234375,3835.383059895833 L 1201.854990234375,3350.330546875 L 739.8791015625001,3350.330546875"
     id="315"
     fill="#ffffff"
     fill-opacity="1.0"
     stroke="#dddddd"
     stroke-opacity="1.0"
     stroke-width="7.0" />
  <path
     d="M 4392.861108398437,249.37046875000001 L 4392.861108398437,1132.7277643229165 L 5042.589301757813,1132.7419492187498 L 5260.949428710937,1214.425671875 L 5374.926694335937,924.47930859375 L 5280.047006835937,890.64833203125 L 5494.469018554687,348.71438671875 L 5228.965546875,249.38465364583334 L 4392.861108398437,249.37046875000001"
     id="307"
     fill="#ffffff"
     fill-opacity="1.0"
     stroke="#dddddd"
     stroke-opacity="1.0"
     stroke-width="7.0" />
  <path
     d="M 5495.20646484375,348.9838997395833 L 5281.050541992187,890.2440625 L 5375.930229492187,924.0750390625001 L 5261.679272460938,1214.6951848958333 L 5605.2076025390625,1343.2103411458331 L 5720.2948388671875,1052.7107669270833 L 5862.1506152343745,1095.12360546875 L 6066.963017578125,562.8921289062499 L 5495.20646484375,348.9838997395833"
     id="306"
     fill="#ffffff"
     fill-opacity="1.0"
     stroke="#dddddd"
     stroke-opacity="1.0"
     stroke-width="7.0" />
  <path
     d="M 6067.67765625,563.1403645833333 L 5862.629575195312,1095.9888841145832 L 5720.75859375,1053.5760455729167 L 5605.9222412109375,1343.4585768229167 L 5772.220180664062,1405.6664375 L 6096.985444335937,1701.6910286458335 L 6764.427553710938,1079.0308411458334 L 6289.481733398438,646.1220052083333 L 6067.67765625,563.1403645833333"
     id="305"
     fill="#ffffff"
     fill-opacity="1.0"
     stroke="#dddddd"
     stroke-opacity="1.0"
     stroke-width="7.0" />
  <path
     d="M 6764.944526367188,1079.5414973958332 L 6097.502416992188,1702.2016848958333 L 6361.7438671875,1943.06830859375 L 6452.328120117188,2138.1531809895832 L 6770.4563671875,2023.134953125 L 6735.33263671875,1939.57882421875 L 7286.2734375,1741.0541145833333 L 7136.3133544921875,1418.0356666666667 L 6764.944526367188,1079.5414973958332"
     id="304"
     fill="#ffffff"
     fill-opacity="1.0"
     stroke="#dddddd"
     stroke-opacity="1.0"
     stroke-width="7.0" />
  <path
     d="M 7286.600346679687,1741.6924348958332 L 6736.343774414062,1939.9689088541668 L 6771.467504882813,2023.5108528645835 L 6452.655029296875,2138.7844088541665 L 6603.3221484375,2463.249716145833 L 6900.132875976563,2357.18925 L 6938.2215966796875,2451.4478828125 L 7518.880722656249,2242.01498828125 L 7286.600346679687,1741.6924348958332"
     id="303"
     fill="#ffffff"
     fill-opacity="1.0"
     stroke="#dddddd"
     stroke-opacity="1.0"
     stroke-width="7.0" />
  <path
     d="M 7519.184824218751,2242.667493489583 L 6937.780649414063,2452.36280859375 L 6899.691928710938,2358.10417578125 L 6603.618647460938,2463.9022213541666 L 6669.927993164063,2606.6873828125 L 6559.052563476563,2606.6873828125 L 6559.060166015624,3344.62821875 L 7045.957177734374,3344.62821875 L 7045.88115234375,3442.504 L 7327.973364257813,3442.504 L 7327.6920703125,2901.8325104166665 L 7590.496640625,2599.2403125 L 7590.496640625,2396.2686380208334 L 7519.184824218751,2242.667493489583"
     id="302"
     fill="#ffffff"
     fill-opacity="1.0"
     stroke="#dddddd"
     stroke-opacity="1.0"
     stroke-width="7.0" />
  <path
     d="M 6559.060166015624,3345.3658333333333 L 6559.052563476563,3802.190403645833 L 7079.385541992188,3802.190403645833 L 7202.265380859375,3576.4165091145833 L 7202.265380859375,3443.2416145833336 L 7045.1208984375,3443.2416145833336 L 7045.196923828124,3345.3658333333333 L 6559.060166015624,3345.3658333333333"
     id="301"
     fill="#ffffff"
     fill-opacity="1.0"
     stroke="#dddddd"
     stroke-opacity="1.0"
     stroke-width="7.0" />
  <path
     d="M 7112.897534179688,3339.0890169270833 L 6895.807031249999,3339.0890169270833 L 6895.807031249999,3457.2137369791667 L 7112.897534179688,3457.2137369791667 L 7112.897534179688,3339.0890169270833"
     id="path7"
     fill="#cacaca"
     fill-opacity="1.0" />
  <path
     d="M 6867.13025390625,1963.4732812500001 L 6673.926928710937,2036.2276119791666 L 6837.449941406249,2415.59555859375 L 7030.995380859375,2342.713563802083 L 6867.13025390625,1963.4732812500001"
     id="path8"
     fill="#cacaca"
     fill-opacity="1.0" />
  <path
     d="M 6388.520009765624,1280.6478580729167 L 6194.39677734375,1461.7464231770832 L 6364.815292968749,1620.7307356770834 L 6558.938525390625,1439.6250781249998 L 6388.520009765624,1280.6478580729167"
     id="path9"
     fill="#cacaca"
     fill-opacity="1.0" />
  <path
     d="M 5496.8486132812495,841.8593828125 L 5400.896967773438,1072.3426627604167 L 5617.782202148438,1150.9269856770834 L 5713.741450195313,920.43661328125 L 5496.8486132812495,841.8593828125"
     id="path10"
     fill="#cacaca"
     fill-opacity="1.0" />
  <path
     d="M 4529.250659179687,655.2003385416666 L 4284.068774414062,655.2003385416666 L 4284.068774414062,942.26716796875 L 4529.250659179687,942.26716796875 L 4529.250659179687,655.2003385416666"
     id="path11"
     fill="#cacaca"
     fill-opacity="1.0" />
  <path
     d="M 2267.8297998046874,839.7032786458334 L 2364.78498046875,1077.4917799479167 L 2141.0194482421875,1156.8988268229166 L 2044.0642675781248,919.1032330729167 L 2267.8297998046874,839.7032786458334"
     id="path12"
     fill="#cacaca"
     fill-opacity="1.0" />
  <path
     d="M 1398.426240234375,1284.19408203125 L 1607.6709228515626,1479.3995260416666 L 1423.9783740234375,1650.7672526041667 L 1214.73369140625,1455.5547161458335 L 1398.426240234375,1284.19408203125"
     id="path13"
     fill="#cacaca"
     fill-opacity="1.0" />
  <path
     d="M 914.0912841796875,1946.7351041666668 L 1128.9010253906251,2027.62447265625 L 947.0863037109375,2449.42653515625 L 731.8964355468751,2368.3953177083336 L 914.0912841796875,1946.7351041666668"
     id="path14"
     fill="#cacaca"
     fill-opacity="1.0" />
  <path
     d="M 672.2545166015625,3339.0890169270833 L 889.3450195312499,3339.0890169270833 L 889.3450195312499,3457.2137369791667 L 672.2545166015625,3457.2137369791667 L 672.2545166015625,3339.0890169270833"
     id="path15"
     fill="#cacaca"
     fill-opacity="1.0" />
  <path
     d="M 3255.86337890625,655.2003385416666 L 3501.045263671875,655.2003385416666 L 3501.045263671875,942.26716796875 L 3255.86337890625,942.26716796875 L 3255.86337890625,655.2003385416666"
     id="path16"
     fill="#cacaca"
     fill-opacity="1.0" />
  <path
     d="M 6150.347666015625,596.716722265625 L 6013.205463867188,545.0269618489583 L 5951.107924804687,688.4142721354167 L 6088.250126953125,740.1040325520834 L 6150.347666015625,596.716722265625"
     id="MASK"
     fill="#ffffff"
     fill-opacity="1.0" />
  <path
     d="M 6611.122353515625,1156.97684375 L 6716.311083984375,1253.98025390625 L 6832.850405273438,1143.9976640625 L 6727.661674804687,1046.99425390625 L 6611.122353515625,1156.97684375"
     id="path17"
     fill="#ffffff"
     fill-opacity="1.0" />
  <path
     d="M 7317.6339111328125,1813.6524114583333 L 7258.630605468749,1687.1231406250001 L 7106.6178369140625,1748.8132526041666 L 7165.621142578125,1875.3425234375 L 7317.6339111328125,1813.6524114583333"
     id="path18"
     fill="#ffffff"
     fill-opacity="1.0" />
  <path
     d="M 469.83159228515626,1813.6878736979168 L 528.8348979492187,1687.1586028645834 L 680.843865234375,1748.84871484375 L 621.842080078125,1875.3779856770834 L 469.83159228515626,1813.6878736979168"
     id="path19"
     fill="#ffffff"
     fill-opacity="1.0" />
  <path
     d="M 1176.371279296875,1156.99812109375 L 1071.1901513671876,1254.00153125 L 954.6508300781251,1144.0260338541666 L 1059.8319580078125,1047.01553125 L 1176.371279296875,1156.99812109375"
     id="path20"
     fill="#ffffff"
     fill-opacity="1.0" />
  <path
     d="M 1637.1231591796875,596.7309071614583 L 1774.2653613281252,545.0411467447916 L 1836.362900390625,688.4277477864583 L 1699.22830078125,740.1182174479167 L 1637.1231591796875,596.7309071614583"
     id="path21"
     fill="#ffffff"
     fill-opacity="1.0" />
  <path
     d="M 3210.5446435546874,251.86062721354165 L 4756.520961914062,251.86062721354165 L 4756.520961914062,355.90683815104165 L 3210.5446435546874,355.90683815104165 L 3210.5446435546874,251.86062721354165"
     id="path22"
     fill="#ffffff"
     fill-opacity="1.0" />
  <path
     d="M 7340.988911132812,2258.2496015624997 L 7400.843701171875,2384.42425 L 7552.430727539063,2321.8404895833332 L 7492.575937500001,2195.6587486979165 L 7340.988911132812,2258.2496015624997"
     id="path23"
     fill="#ffffff"
     fill-opacity="1.0" />
  <text
     font-family="ArialMT, Arial"
     font-size="80px"
     fill-rule="nonzero"
     fill="#666666"
     font-weight="normal"
     id="text23"
     x="-7175.6597"
     y="-591.25195"
     transform="rotate(-90)"><tspan
       x="-4031.2498"
       y="3157.8157"
       id="tspan23">FLOOR 5</tspan></text>
  <text
     font-family="ArialMT, Arial"
     font-size="80px"
     fill-rule="nonzero"
     fill="#666666"
     font-weight="normal"
     id="text24"
     x="-8048.7427"
     y="1584.7598"
     transform="rotate(-90)"><tspan
       x="-3379.2632"
       y="4706.146"
       id="tspan24">FLOOR 2</tspan></text>
  <text
     font-family="ArialMT, Arial"
     font-size="80px"
     fill-rule="nonzero"
     fill="#666666"
     font-weight="normal"
     id="text25"
     x="-8635.6611"
     y="947.73199"
     transform="rotate(-90)"><tspan
       x="-3987.4692"
       y="4698.2188"
       id="tspan25">FLOOR 1</tspan></text>
  <text
     font-family="ArialMT, Arial"
     font-size="80px"
     fill-rule="nonzero"
     fill="#666666"
     font-weight="normal"
     id="text26"
     x="-136.22681"
     y="91.662827"><tspan
       x="3738.0271"
       y="2652.7458"
       id="tspan26">FLOOR 3</tspan></text>
  <text
     font-family="ArialMT, Arial"
     font-size="80px"
     fill-rule="nonzero"
     fill="#666666"
     font-weight="normal"
     id="text27"
     x="-6518.4336"
     y="21.1409"
     transform="rotate(-90)"><tspan
       x="-3396.0713"
       y="3142.5271"
       id="tspan27">FLOOR 4</tspan></text>
  <text
     font-family="ArialMT, Arial"
     font-size="80px"
     fill-rule="nonzero"
     fill="#666666"
     font-weight="normal"
     id="text28"
     x="-5.8889008"
     y="107.78549"><tspan
       x="5432.2075"
       y="4633.4766"
       id="tspan28">101</tspan></text>
  <text
     font-family="ArialMT, Arial"
     font-size="80"
     fill-rule="nonzero"
     fill="#666"
     font-weight="normal"
     id="text29"><tspan
       x="5625.11865234375"
       y="4030.638151041667"
       id="tspan29">102</tspan></text>
  <text
     font-family="ArialMT, Arial"
     font-size="80"
     fill-rule="nonzero"
     fill="#666"
     font-weight="normal"
     id="text30"><tspan
       x="5625.11865234375"
       y="3302.9529947916667"
       id="tspan30">103</tspan></text>
  <text
     font-family="ArialMT, Arial"
     font-size="80"
     fill-rule="nonzero"
     fill="#666"
     font-weight="normal"
     id="text31"><tspan
       x="5744.478515625"
       y="2614.276302083333"
       id="tspan31">104</tspan></text>
  <text
     font-family="ArialMT, Arial"
     font-size="80"
     fill-rule="nonzero"
     fill="#666"
     font-weight="normal"
     id="text32"><tspan
       x="5476.869140625"
       y="2141.2100260416664"
       id="tspan32">105</tspan></text>
  <text
     font-family="ArialMT, Arial"
     font-size="80"
     fill-rule="nonzero"
     fill="#666"
     font-weight="normal"
     id="text33"><tspan
       x="5054.16796875"
       y="1857.512109375"
       id="tspan33">106</tspan></text>
  <text
     font-family="ArialMT, Arial"
     font-size="80"
     fill-rule="nonzero"
     fill="#666"
     font-weight="normal"
     id="text34"><tspan
       x="4532.6337890625"
       y="1795.0985677083333"
       id="tspan34">107</tspan></text>
  <text
     font-family="ArialMT, Arial"
     font-size="80"
     fill-rule="nonzero"
     fill="#666"
     font-weight="normal"
     id="text35"><tspan
       x="3252.3662109375"
       y="1795.0985677083333"
       id="tspan35">109</tspan></text>
  <text
     font-family="ArialMT, Arial"
     font-size="80"
     fill-rule="nonzero"
     fill="#666"
     font-weight="normal"
     id="text36"><tspan
       x="2779.48828125"
       y="1899.3575520833333"
       id="tspan36">110</tspan></text>
  <text
     font-family="ArialMT, Arial"
     font-size="80"
     fill-rule="nonzero"
     fill="#666"
     font-weight="normal"
     id="text37"><tspan
       x="2307.37060546875"
       y="2141.2100260416664"
       id="tspan37">111</tspan></text>
  <text
     font-family="ArialMT, Arial"
     font-size="80"
     fill-rule="nonzero"
     fill="#666"
     font-weight="normal"
     id="text38"><tspan
       x="2039.76123046875"
       y="2614.276302083333"
       id="tspan38">112</tspan></text>
  <text
     font-family="ArialMT, Arial"
     font-size="80"
     fill-rule="nonzero"
     fill="#666"
     font-weight="normal"
     id="text39"><tspan
       x="2159.12109375"
       y="3302.9529947916667"
       id="tspan39">113</tspan></text>
  <text
     font-family="ArialMT, Arial"
     font-size="80"
     fill-rule="nonzero"
     fill="#666"
     font-weight="normal"
     id="text40"><tspan
       x="2159.12109375"
       y="4030.638151041667"
       id="tspan40">114</tspan></text>
  <text
     font-family="ArialMT, Arial"
     font-size="80px"
     fill-rule="nonzero"
     fill="#666666"
     font-weight="normal"
     id="text41"
     x="-72.917747"
     y="101.76041"><tspan
       x="2274.7463"
       y="4628.1606"
       id="tspan41">115</tspan></text>
  <text
     font-family="ArialMT, Arial"
     font-size="80"
     fill-rule="nonzero"
     fill="#666"
     font-weight="normal"
     id="text42"><tspan
       x="3892.5"
       y="1929.1458333333333"
       id="tspan42">108</tspan></text>
  <text
     font-family="ArialMT, Arial"
     font-size="80"
     fill-rule="nonzero"
     fill="#666"
     font-weight="normal"
     id="text43"><tspan
       x="3880.3359375"
       y="612.0782552083333"
       id="tspan43">308</tspan></text>
  <text
     font-family="ArialMT, Arial"
     font-size="80"
     fill-rule="nonzero"
     fill="#666"
     font-weight="normal"
     id="text44"><tspan
       x="2875.2802734375"
       y="609.2412760416667"
       id="tspan44">309</tspan></text>
  <text
     font-family="ArialMT, Arial"
     font-size="80"
     fill-rule="nonzero"
     fill="#666"
     font-weight="normal"
     id="text45"><tspan
       x="2133.2724609375"
       y="750.3809895833333"
       id="tspan45">310</tspan></text>
  <text
     font-family="ArialMT, Arial"
     font-size="80"
     fill-rule="nonzero"
     fill="#666"
     font-weight="normal"
     id="text46"><tspan
       x="1595.0126953125"
       y="1064.5764322916666"
       id="tspan46">311</tspan></text>
  <text
     font-family="ArialMT, Arial"
     font-size="80"
     fill-rule="nonzero"
     fill="#666"
     font-weight="normal"
     id="text47"><tspan
       x="1094.00537109375"
       y="1558.2108072916667"
       id="tspan47">312</tspan></text>
  <text
     font-family="ArialMT, Arial"
     font-size="80px"
     fill-rule="nonzero"
     fill="#666666"
     font-weight="normal"
     id="text48"
     x="-179.80762"
     y="3.6950684"><tspan
       x="629.10254"
       y="2078.9453"
       id="tspan48">313</tspan></text>
  <text
     font-family="ArialMT, Arial"
     font-size="80"
     fill-rule="nonzero"
     fill="#666"
     font-weight="normal"
     id="text49"><tspan
       x="742.76806640625"
       y="2763.217708333333"
       id="tspan49">314</tspan></text>
  <text
     font-family="ArialMT, Arial"
     font-size="80"
     fill-rule="nonzero"
     fill="#666"
     font-weight="normal"
     id="text50"><tspan
       x="922.9482421875"
       y="3514.3079427083335"
       id="tspan50">315</tspan></text>
  <text
     font-family="ArialMT, Arial"
     font-size="80"
     fill-rule="nonzero"
     fill="#666"
     font-weight="normal"
     id="text51"><tspan
       x="4886.912109375"
       y="607.8227864583333"
       id="tspan51">307</tspan></text>
  <text
     font-family="ArialMT, Arial"
     font-size="80"
     fill-rule="nonzero"
     fill="#666"
     font-weight="normal"
     id="text52"><tspan
       x="5629.68017578125"
       y="746.1255208333333"
       id="tspan52">306</tspan></text>
  <text
     font-family="ArialMT, Arial"
     font-size="80"
     fill-rule="nonzero"
     fill="#666"
     font-weight="normal"
     id="text53"><tspan
       x="6171.7412109375"
       y="1058.1932291666667"
       id="tspan53">305</tspan></text>
  <text
     font-family="ArialMT, Arial"
     font-size="80"
     fill-rule="nonzero"
     fill="#666"
     font-weight="normal"
     id="text54"><tspan
       x="6697.07666015625"
       y="1546.8628906249999"
       id="tspan54">304</tspan></text>
  <text
     font-family="ArialMT, Arial"
     font-size="80"
     fill-rule="nonzero"
     fill="#666"
     font-weight="normal"
     id="text55"><tspan
       x="7005.73974609375"
       y="2056.1006510416664"
       id="tspan55">303</tspan></text>
  <text
     font-family="ArialMT, Arial"
     font-size="80"
     fill-rule="nonzero"
     fill="#666"
     font-weight="normal"
     id="text56"><tspan
       x="7031.58837890625"
       y="2764.636197916667"
       id="tspan56">302</tspan></text>
  <text
     font-family="ArialMT, Arial"
     font-size="80px"
     fill-rule="nonzero"
     fill="#666666"
     font-weight="normal"
     id="text57"
     x="-173.55194"
     y="31.192017"><tspan
       x="6677.8564"
       y="3528.478"
       id="tspan57">301</tspan></text>
</svg>
