<svg width="1024px" height="768px" viewBox="0 0 10240 7680" x="0px" y="0px" xmlns="http://www.w3.org/2000/svg"><defs></defs><path d="M3323.31,151.58L1855.71,740.14L685.26,1883.75L55.8,3337.16L55.83,3720.76L401.26,5060.75L829.15,5607.67L1659.0,6504.88L2259.07,6963.99L3727.32,7528.42L6505.17,7528.37L7982.16,6964.06L8580.92,6504.78L9434.58,5560.88L9838.07,5040.08L10184.1,3735.76L10184.1,3337.18L9554.62,1883.75L8384.15,740.15L6916.54,151.61L3323.31,151.58Z" id="POCHE" fill="#dddddd" fill-opacity="1.0" /><path d="M5725.96,3993.35C5378.96,3993.35,4888.03,3993.35,4536.57,3993.35C4457.94,3993.35,4320.93,4085.46,4320.93,4197.52C4320.93,5105.3,4320.93,6356.74,4320.93,7274.38C4618.96,7274.38,5635.85,7274.38,5933.88,7274.38C5933.88,6356.74,5933.88,5105.3,5933.88,4197.52L5933.88,4197.52C5933.88,4085.34,5800.33,3993.35,5725.96,3993.35Z" id="ICE FLOOR" fill="#dfeced" fill-opacity="1.0" /><path d="M3970.1,4984.79L3970.1,5872.23L4245.99,5872.23L4245.99,5690.49L4301.99,5690.44L4301.99,5166.28L4245.98,5166.26L4245.9,4984.79L3970.1,4984.79Z" id="FLOOR 5" fill="#ffffff" fill-opacity="1.0" stroke="#dddddd" stroke-opacity="1.0" stroke-width="7.0" /><path d="M6005.12,4164.07L5949.01,4164.17L5949.01,4918.86L6005.03,4918.93L6005.12,4984.81L6336.84,4984.81L6336.84,4098.03L6005.18,4098.04L6005.12,4164.07Z" id="FLOOR 2" fill="#ffffff" fill-opacity="1.0" stroke="#dddddd" stroke-opacity="1.0" stroke-width="7.0" /><path d="M6280.83,4984.79L6280.83,5872.23L6004.94,5872.23L6004.94,5690.49L5948.94,5690.44L5948.94,5166.28L6004.95,5166.26L6005.03,4984.79L6280.83,4984.79Z" id="FLOOR 1" fill="#ffffff" fill-opacity="1.0" stroke="#dddddd" stroke-opacity="1.0" stroke-width="7.0" /><path d="M5837.18,3530.6L4356.04,3530.6L4356.04,3918.34L4653.06,3918.34L4653.1,3974.34L5540.08,3974.34L5540.14,3918.4L5837.18,3918.34L5837.18,3530.6Z" id="FLOOR 3" fill="#ffffff" fill-opacity="1.0" stroke="#dddddd" stroke-opacity="1.0" stroke-width="7.0" /><path d="M4245.8,4163.9L4301.91,4164.0L4301.91,4918.69L4245.89,4918.75L4245.81,4984.64L3914.08,4984.64L3914.08,4097.86L4245.74,4097.86L4245.8,4163.9Z" id="FLOOR 4" fill="#ffffff" fill-opacity="1.0" stroke="#dddddd" stroke-opacity="1.0" stroke-width="7.0" /><path d="M3804.85,1835.1L3804.85,1835.7L3829.38,1948.1L4560.7,1948.1L4560.7,2146.65L5681.7,2146.65L5681.7,1948.1L6410.55,1948.1L6435.14,1835.4L6435.15,1835.1L3804.85,1835.1Z" id="INACTIVE" fill="#cacaca" fill-opacity="1.0" stroke="#cacaca" stroke-opacity="1.0" stroke-width="7.0" /><path d="M3328.76,2044.66L3423.85,2247.14L3278.1,2308.89C3112.7,2473.91,2947.29,2638.93,2947.29,2638.93C2947.29,2638.93,2863.31,2558.45,2779.33,2477.98L2779.33,2477.98L3110.14,2147.93L3328.76,2044.66Z" id="INACTIVE" fill="#cacaca" fill-opacity="1.0" stroke="#cacaca" stroke-opacity="1.0" stroke-width="7.0" /><path d="M2779.33,2478.15L2500.74,2760.53L2319.7,3145.31L2529.5,3229.21L2688.27,2892.17L2947.13,2638.97L2779.33,2478.15Z" id="INACTIVE" fill="#cacaca" fill-opacity="1.0" stroke="#cacaca" stroke-opacity="1.0" stroke-width="7.0" /><path d="M7458.93,2481.25L7298.95,2640.25L7551.88,2892.2L7710.47,3228.86L7920.19,3145.08L7739.02,2760.26L7458.93,2481.25Z" id="INACTIVE" fill="#cacaca" fill-opacity="1.0" stroke="#cacaca" stroke-opacity="1.0" stroke-width="7.0" /><path d="M6450.94,6304.75L6450.96,6763.84L7888.34,6763.84L7888.34,6304.75L6450.94,6304.75Z" id="101Gold" fill="#ffffff" fill-opacity="1.0" stroke="#dddddd" stroke-opacity="1.0" stroke-width="7.0" /><path d="M6451.02,5283.1L6451.03,6304.8L8380.95,6304.8L8380.94,5283.1L6451.02,5283.1Z" id="102Gold" fill="#ffffff" fill-opacity="1.0" stroke="#dddddd" stroke-opacity="1.0" stroke-width="7.0" /><path d="M6451.1,4254.1L6451.11,5282.09L8380.94,5282.09L8380.93,4254.1L6451.1,4254.1Z" id="103Gold" fill="#ffffff" fill-opacity="1.0" stroke="#dddddd" stroke-opacity="1.0" stroke-width="7.0" /><path d="M8183.53,3041.1L6897.15,3555.51L6998.25,3770.35L6673.67,3770.35L6451.64,3828.88L6451.18,4253.05L8380.92,4253.01L8380.92,3460.32L8183.53,3041.1Z" id="104Gold" fill="#ffffff" fill-opacity="1.0" stroke="#dddddd" stroke-opacity="1.0" stroke-width="7.0" /><path d="M7298.7,2639.9L6678.1,3256.64L6825.61,3403.6L6896.64,3554.51L7710.59,3229.05L7551.85,2892.06L7298.7,2639.9Z" id="105" fill="#ffffff" fill-opacity="1.0" stroke="#dddddd" stroke-opacity="1.0" stroke-width="7.0" /><path d="M6435.38,1835.25L6025.83,3515.6L6068.19,3515.6L6157.06,3556.37L6306.09,3704.84L6793.83,3372.05L6678.29,3256.64L7458.19,2480.51L7130.29,2153.9L6435.38,1835.25Z" id="1-106" fill="#ffffff" fill-opacity="1.0" stroke="#dddddd" stroke-opacity="1.0" stroke-width="7.0" /><path d="M5681.7,1948.05L5681.3,3515.61L6025.73,3515.6L6407.81,1948.05L5681.7,1948.05Z" id="107" fill="#ffffff" fill-opacity="1.0" stroke="#dddddd" stroke-opacity="1.0" stroke-width="7.0" /><path d="M3832.0,1948.05L4202.34,3515.6L4560.09,3515.61L4560.09,1948.05L3832.0,1948.05Z" id="109" fill="#ffffff" fill-opacity="1.0" stroke="#dddddd" stroke-opacity="1.0" stroke-width="7.0" /><path d="M3804.27,1835.45L3327.13,2049.2L3419.21,2245.33L3276.15,2305.95L2942.3,2639.03L3563.08,3255.55L3446.19,3372.04L3933.97,3704.84L4082.95,3556.37L4171.79,3515.59L4202.24,3515.67L3831.89,1947.95L3804.27,1835.45Z" id="110" fill="#ffffff" fill-opacity="1.0" stroke="#dddddd" stroke-opacity="1.0" stroke-width="7.0" /><path d="M2941.7,2639.75L2688.28,2892.18L2529.5,3229.24L3343.4,3554.7L3414.41,3403.81L3562.46,3256.25L2941.7,2639.75Z" id="111" fill="#ffffff" fill-opacity="1.0" stroke="#dddddd" stroke-opacity="1.0" stroke-width="7.0" /><path d="M2056.41,3041.15L1859.2,3460.37L1859.15,4252.94L3803.76,4252.95L3803.21,4119.95L3803.21,3828.85L3566.46,3770.35L3241.92,3770.35L3342.97,3555.6L2056.41,3041.15Z" id="1-112" fill="#ffffff" fill-opacity="1.0" stroke="#dddddd" stroke-opacity="1.0" stroke-width="7.0" /><path d="M1861.3,4253.9L1861.23,5282.0L3803.82,5282.0L3803.84,4253.9L1861.3,4253.9Z" id="1-113" fill="#ffffff" fill-opacity="1.0" stroke="#dddddd" stroke-opacity="1.0" stroke-width="7.0" /><path d="M1859.12,5283.1L1859.05,6304.9L3803.9,6304.9L3803.91,5283.1L1859.12,5283.1Z" id="1-114" fill="#ffffff" fill-opacity="1.0" stroke="#dddddd" stroke-opacity="1.0" stroke-width="7.0" /><path d="M2355.55,6305.9L2355.55,6763.89L3803.98,6763.89L3803.99,6305.9L2355.55,6305.9Z" id="115Platinu" fill="#ffffff" fill-opacity="1.0" stroke="#dddddd" stroke-opacity="1.0" stroke-width="7.0" /><path d="M4561.1,2146.6L4561.1,3515.61L5680.3,3515.61L5680.3,2146.6L4561.1,2146.6Z" id="108" fill="#ffffff" fill-opacity="1.0" stroke="#dddddd" stroke-opacity="1.0" stroke-width="7.0" /><path d="M7928.1,4146.15L8288.4,4146.15L8288.4,4350.55L7928.1,4350.55L7928.1,4146.15Z" id="VOM" fill="#cacaca" fill-opacity="1.0" stroke="#cacaca" stroke-opacity="1.0" stroke-width="2.0" /><path d="M1975.25,5180.9L2335.55,5180.9L2335.55,5385.3L1975.25,5385.3L1975.25,5180.9Z" id="VOM" fill="#cacaca" fill-opacity="1.0" stroke="#cacaca" stroke-opacity="1.0" stroke-width="2.0" /><path d="M1974.25,4146.15L2334.55,4146.15L2334.55,4350.55L1974.25,4350.55L1974.25,4146.15Z" id="VOM" fill="#cacaca" fill-opacity="1.0" stroke="#cacaca" stroke-opacity="1.0" stroke-width="2.0" /><path d="M7928.1,5180.9L8288.4,5180.9L8288.4,5385.3L7928.1,5385.3L7928.1,5180.9Z" id="VOM" fill="#cacaca" fill-opacity="1.0" stroke="#cacaca" stroke-opacity="1.0" stroke-width="2.0" /><path d="M3578.72,1598.58L2619.05,1983.4L2453.85,2144.8L2592.32,2285.03L2725.33,2155.08L3614.42,1798.57L6593.47,1798.57L7482.56,2155.08L7615.78,2285.25L7754.43,2141.75L7592.37,1983.4L6632.7,1598.58L3578.72,1598.58Z" id="SUITS" fill="#cacaca" fill-opacity="1.0" /><path d="M3361.97,351.62L1967.09,911.014L853.199,1999.35L255.85,3378.64L255.86,3671.18L477.833,4091.1L601.29,4091.1L601.29,4860.77L763.0,4860.77L763.0,5035.61L951.944,5407.69L1580.86,5407.69L1580.85,3711.11L1859.31,3067.94L1724.14,3015.54L1843.68,2739.53L1972.12,2613.98L2069.62,2724.48L2293.99,2505.27L2189.95,2401.24L2453.14,2144.11L2619.24,1983.44L3578.94,1598.64L6633.19,1598.89L7592.99,1983.64L7755.26,2140.95L8367.92,2739.62L8773.27,3675.3L8627.45,3675.3L8627.45,5360.9L9311.87,5360.9L9473.5,5042.56L9473.5,4853.76L9638.85,4853.76L9638.11,4091.14L9984.16,3664.79L9984.16,3378.62L9386.74,1999.36L8272.85,910.994L6877.92,351.62L3361.97,351.62Z" id="DROP SHADOW" fill="#cacaca" fill-opacity="1.0" stroke="#cacaca" stroke-opacity="1.0" stroke-width="7.0" /><path d="M4431.9,351.62L4431.9,1597.11L5777.2,1597.11L5777.2,351.61L4431.9,351.62Z" id="308" fill="#ffffff" fill-opacity="1.0" stroke="#dddddd" stroke-opacity="1.0" stroke-width="7.0" /><path d="M4430.87,351.6L3361.98,351.62L2986.65,502.14L3259.84,1243.74L3134.94,1291.44L3290.15,1712.86L3578.81,1597.11L4430.87,1597.09L4430.87,351.6Z" id="309" fill="#ffffff" fill-opacity="1.0" stroke="#dddddd" stroke-opacity="1.0" stroke-width="7.0" /><path d="M2985.73,502.5L2233.65,804.1L2499.29,1544.05L2680.34,1476.19L2837.37,1894.42L3289.23,1713.22L3135.69,1291.84L3260.64,1244.09L2985.73,502.5Z" id="310" fill="#ffffff" fill-opacity="1.0" stroke="#dddddd" stroke-opacity="1.0" stroke-width="7.0" /><path d="M2232.72,804.5L1967.09,911.02L1326.75,1536.66L2190.66,2400.57L2619.15,1981.94L2836.45,1894.8L2680.34,1476.19L2498.67,1545.31L2232.72,804.5Z" id="311" fill="#ffffff" fill-opacity="1.0" stroke="#dddddd" stroke-opacity="1.0" stroke-width="7.0" /><path d="M1326.06,1537.35L853.2,1999.35L651.9,2464.15L1380.75,2745.7L1334.65,2863.51L1724.54,3014.64L1843.68,2739.54L1972.13,2613.99L2069.63,2724.48L2293.99,2505.28L1326.06,1537.35Z" id="312" fill="#ffffff" fill-opacity="1.0" stroke="#dddddd" stroke-opacity="1.0" stroke-width="7.0" /><path d="M651.47,2465.05L343.35,3176.51L1065.16,3457.31L1115.41,3324.41L1658.79,3531.04L1859.31,3067.94L1333.32,2864.04L1379.42,2746.25L651.47,2465.05Z" id="313" fill="#ffffff" fill-opacity="1.0" stroke="#dddddd" stroke-opacity="1.0" stroke-width="7.0" /><path d="M342.98,3177.45L255.85,3378.64L255.86,3671.19L477.84,4091.1L601.3,4091.1L601.3,4860.78L972.2,4860.78L972.2,4722.78L1580.86,4722.78L1580.85,3711.12L1658.42,3531.98L1115.47,3324.42L1065.86,3453.81L342.98,3177.45Z" id="314" fill="#ffffff" fill-opacity="1.0" stroke="#dddddd" stroke-opacity="1.0" stroke-width="7.0" /><path d="M973.2,4723.8L973.2,4861.8L763.0,4861.8L763.0,5035.62L951.95,5407.7L1580.86,5407.7L1580.86,4723.8L973.2,4723.8Z" id="315" fill="#ffffff" fill-opacity="1.0" stroke="#dddddd" stroke-opacity="1.0" stroke-width="7.0" /><path d="M5778.15,351.6L5778.15,1597.09L6632.77,1597.11L6919.99,1712.28L7069.91,1303.47L6945.11,1255.77L7227.15,491.67L6877.92,351.62L5778.15,351.6Z" id="307" fill="#ffffff" fill-opacity="1.0" stroke="#dddddd" stroke-opacity="1.0" stroke-width="7.0" /><path d="M7228.12,492.05L6946.43,1255.2L7071.23,1302.9L6920.95,1712.66L7372.81,1893.86L7524.19,1484.27L7710.78,1544.07L7980.18,793.65L7228.12,492.05Z" id="306" fill="#ffffff" fill-opacity="1.0" stroke="#dddddd" stroke-opacity="1.0" stroke-width="7.0" /><path d="M7981.12,794.0L7711.41,1545.29L7524.8,1485.49L7373.75,1894.21L7592.49,1981.92L8019.67,2399.3L8897.59,1521.38L8272.87,911.0L7981.12,794.0Z" id="305" fill="#ffffff" fill-opacity="1.0" stroke="#dddddd" stroke-opacity="1.0" stroke-width="7.0" /><path d="M8898.27,1522.1L8020.35,2400.02L8367.92,2739.63L8487.07,3014.69L8905.52,2852.52L8859.32,2734.71L9584.0,2454.8L9386.75,1999.36L8898.27,1522.1Z" id="304" fill="#ffffff" fill-opacity="1.0" stroke="#dddddd" stroke-opacity="1.0" stroke-width="7.0" /><path d="M9584.43,2455.7L8860.65,2735.26L8906.85,2853.05L8487.5,3015.58L8685.68,3473.06L9076.09,3323.52L9126.19,3456.42L9889.96,3161.13L9584.43,2455.7Z" id="303" fill="#ffffff" fill-opacity="1.0" stroke="#dddddd" stroke-opacity="1.0" stroke-width="7.0" /><path d="M9890.36,3162.05L9125.61,3457.71L9075.51,3324.81L8686.07,3473.98L8773.29,3675.3L8627.45,3675.3L8627.46,4715.76L9267.9,4715.76L9267.8,4853.76L9638.85,4853.76L9638.48,4091.44L9984.16,3664.8L9984.16,3378.62L9890.36,3162.05Z" id="302" fill="#ffffff" fill-opacity="1.0" stroke="#dddddd" stroke-opacity="1.0" stroke-width="7.0" /><path d="M8627.46,4716.8L8627.45,5360.9L9311.87,5360.9L9473.5,5042.57L9473.5,4854.8L9266.8,4854.8L9266.9,4716.8L8627.46,4716.8Z" id="301" fill="#ffffff" fill-opacity="1.0" stroke="#dddddd" stroke-opacity="1.0" stroke-width="7.0" /><path d="M9355.95,4707.95L9070.4,4707.95L9070.4,4874.5L9355.95,4874.5L9355.95,4707.95Z" id="VOM" fill="#cacaca" fill-opacity="1.0" /><path d="M9032.68,2768.4L8778.55,2870.98L8993.64,3405.87L9248.22,3303.11L9032.68,2768.4Z" id="VOM" fill="#cacaca" fill-opacity="1.0" /><path d="M8403.14,1805.65L8147.8,2060.99L8371.96,2285.15L8627.3,2029.8L8403.14,1805.65Z" id="VOM" fill="#cacaca" fill-opacity="1.0" /><path d="M7230.28,1186.98L7104.07,1511.95L7389.35,1622.75L7515.57,1297.77L7230.28,1186.98Z" id="VOM" fill="#cacaca" fill-opacity="1.0" /><path d="M5957.55,923.8L5635.05,923.8L5635.05,1328.55L5957.55,1328.55L5957.55,923.8Z" id="VOM" fill="#cacaca" fill-opacity="1.0" /><path d="M2982.99,1183.94L3110.52,1519.21L2816.19,1631.17L2688.66,1295.89L2982.99,1183.94Z" id="VOM" fill="#cacaca" fill-opacity="1.0" /><path d="M1839.42,1810.65L2114.65,2085.88L1873.03,2327.5L1597.8,2052.26L1839.42,1810.65Z" id="VOM" fill="#cacaca" fill-opacity="1.0" /><path d="M1202.35,2744.8L1484.9,2858.85L1245.75,3453.57L962.7,3339.32L1202.35,2744.8Z" id="VOM" fill="#cacaca" fill-opacity="1.0" /><path d="M884.25,4707.95L1169.8,4707.95L1169.8,4874.5L884.25,4874.5L884.25,4707.95Z" id="VOM" fill="#cacaca" fill-opacity="1.0" /><path d="M4282.6,923.8L4605.1,923.8L4605.1,1328.55L4282.6,1328.55L4282.6,923.8Z" id="VOM" fill="#cacaca" fill-opacity="1.0" /><path d="M8089.86,841.341L7909.47,768.461L7827.79,970.63L8008.18,1043.51L8089.86,841.341Z" id="MASK" fill="#ffffff" fill-opacity="1.0" /><path d="M8695.94,1631.28L8834.3,1768.05L8987.59,1612.98L8849.23,1476.21L8695.94,1631.28Z" id="MASK" fill="#ffffff" fill-opacity="1.0" /><path d="M9625.25,2557.16L9547.64,2378.76L9347.69,2465.74L9425.3,2644.14L9625.25,2557.16Z" id="MASK" fill="#ffffff" fill-opacity="1.0" /><path d="M617.993,2557.21L695.603,2378.81L895.548,2465.79L817.94,2644.19L617.993,2557.21Z" id="MASK" fill="#ffffff" fill-opacity="1.0" /><path d="M1547.34,1631.31L1408.99,1768.08L1255.7,1613.02L1394.05,1476.24L1547.34,1631.31Z" id="MASK" fill="#ffffff" fill-opacity="1.0" /><path d="M2153.39,841.361L2333.78,768.481L2415.46,970.649L2235.08,1043.53L2153.39,841.361Z" id="MASK" fill="#ffffff" fill-opacity="1.0" /><path d="M4222.99,355.111L6256.49,355.111L6256.49,501.811L4222.99,501.811L4222.99,355.111Z" id="MASK" fill="#ffffff" fill-opacity="1.0" /><path d="M9655.97,3184.02L9734.7,3361.92L9934.09,3273.68L9855.36,3095.77L9655.97,3184.02Z" id="MASK" fill="#ffffff" fill-opacity="1.0" /></svg>